<?xml version="1.0" encoding="UTF-8" standalone="no"?>
<!-- Created with Inkscape (http://www.inkscape.org/) -->

<svg
   width="145.11099"
   height="24"
   viewBox="0 0 38.393949 6.3499999"
   version="1.1"
   id="svg1"
   inkscape:version="1.4 (86a8ad7, 2024-10-11)"
   sodipodi:docname="logo.svg"
   xmlns:inkscape="http://www.inkscape.org/namespaces/inkscape"
   xmlns:sodipodi="http://sodipodi.sourceforge.net/DTD/sodipodi-0.dtd"
   xmlns="http://www.w3.org/2000/svg"
   xmlns:svg="http://www.w3.org/2000/svg">
  <sodipodi:namedview
     id="namedview1"
     pagecolor="#505050"
     bordercolor="#eeeeee"
     borderopacity="1"
     inkscape:showpageshadow="0"
     inkscape:pageopacity="0"
     inkscape:pagecheckerboard="0"
     inkscape:deskcolor="#505050"
     inkscape:document-units="px"
     showgrid="true"
     inkscape:zoom="4.1354166"
     inkscape:cx="64.564233"
     inkscape:cy="40.503779"
     inkscape:window-width="1920"
     inkscape:window-height="1009"
     inkscape:window-x="-8"
     inkscape:window-y="-8"
     inkscape:window-maximized="1"
     inkscape:current-layer="g1">
    <inkscape:grid
       id="grid1"
       units="px"
       originx="-1.0583136"
       originy="-1.0583329"
       spacingx="0.26458333"
       spacingy="0.26458333"
       empcolor="#0099e5"
       empopacity="0.30196078"
       color="#0099e5"
       opacity="0.14901961"
       empspacing="5"
       enabled="true"
       visible="true" />
  </sodipodi:namedview>
  <defs
     id="defs1" />
  <g
     inkscape:label="Layer 1"
     inkscape:groupmode="layer"
     id="layer1"
     transform="translate(-1.0583136,-1.058333)">
    <g
       id="g1"
       transform="translate(1.0582675,1.0583331)">
      <g
         id="g2">
        <rect
           style="fill:none;stroke:#000000;stroke-width:0.529167;stroke-linejoin:miter;stroke-miterlimit:4.5;stroke-dasharray:none;stroke-opacity:1;paint-order:markers stroke fill"
           id="rect1"
           width="4.7624998"
           height="4.7624998"
           x="0.79374993"
           y="0.79374993" />
        <path
           style="fill:none;stroke:#000000;stroke-width:0.529167;stroke-linejoin:bevel;stroke-miterlimit:4.5;stroke-dasharray:none;stroke-opacity:1;paint-order:markers stroke fill"
           d="M 0.79374994,0.79374994 3.175,5.5562497 5.5562497,0.79374996"
           id="path1" />
        <path
           style="fill:none;stroke:#000000;stroke-width:0.529167;stroke-linejoin:bevel;stroke-miterlimit:4.5;stroke-dasharray:none;stroke-opacity:1;paint-order:markers stroke fill"
           d="M 3.175,0.79374996 V 5.5562497"
           id="path2" />
      </g>
      <path
         style="font-weight:500;font-size:5.29167px;font-family:'IBM Plex Mono';-inkscape-font-specification:'IBM Plex Mono Medium';letter-spacing:0px;stroke-width:0.449792;stroke-linejoin:bevel;stroke-miterlimit:4.5;paint-order:markers stroke fill"
         d="M 8.4430461,2.2833537 H 8.3954211 V 5.1249804 H 7.8768374 V 1.4313949 h 0.7620005 l 1.0847923,2.8416267 h 0.047625 V 1.4313949 H 10.289839 V 5.1249804 H 9.5278384 Z M 12.427676,1.8970618 q -0.222251,0 -0.312209,-0.089958 Q 12.0308,1.7171451 12.0308,1.5848533 v -0.111125 q 0,-0.1322918 0.08467,-0.2222502 0.08996,-0.089958 0.306917,-0.089958 0.22225,0 0.306917,0.089958 0.08996,0.089958 0.08996,0.2222502 v 0.111125 q 0,0.1322918 -0.08996,0.2222502 -0.08467,0.089958 -0.301625,0.089958 z M 11.2053,4.6593135 h 0.931334 V 2.8601458 H 11.2053 v -0.465667 h 1.508126 v 2.2648347 h 0.873125 V 5.1249804 H 11.2053 Z m 4.328588,0.529167 q -0.306917,0 -0.550334,-0.1005417 -0.238125,-0.1005418 -0.407458,-0.2857502 -0.164042,-0.1852085 -0.254,-0.4497919 -0.08467,-0.2645835 -0.08467,-0.5926671 0,-0.3280835 0.08467,-0.592667 0.08996,-0.2645835 0.254,-0.4497919 0.169333,-0.1852085 0.407458,-0.2857502 0.243417,-0.1005417 0.545042,-0.1005417 0.423334,0 0.677334,0.1799167 0.259292,0.1799168 0.386292,0.465667 L 16.14243,3.2199793 q -0.07408,-0.1905001 -0.227542,-0.3016252 -0.148167,-0.111125 -0.386292,-0.111125 -0.328083,0 -0.508,0.2010834 -0.179917,0.1957918 -0.179917,0.5238753 v 0.4550836 q 0,0.3227919 0.179917,0.5238753 0.179917,0.2010835 0.518584,0.2010835 0.254,0 0.41275,-0.1164167 0.164042,-0.1164168 0.259292,-0.3175002 l 0.423333,0.2592918 q -0.132292,0.2857502 -0.402167,0.4709586 -0.269875,0.1799168 -0.6985,0.1799168 z m 1.952628,-3.9793357 h 0.576792 v 2.3653764 h 0.02646 l 0.428625,-0.4392086 0.767292,-0.7408338 h 0.682625 l -1.105959,1.074209 1.227668,1.6562926 h -0.693209 l -0.952501,-1.3282091 -0.381,0.3545419 v 0.9736672 h -0.576792 z m 6.059092,3.9158356 -1.042459,-3.6935855 h 0.640292 l 0.486834,1.8626678 0.322792,1.2541257 h 0.03175 l 0.322791,-1.2541257 0.492126,-1.8626678 h 0.613833 l -1.042459,3.6935855 z m 3.645964,0.0635 q -0.312209,0 -0.560917,-0.1005417 Q 26.381946,4.987397 26.212613,4.8021886 26.043279,4.6169801 25.953321,4.3576883 q -0.08996,-0.2645835 -0.08996,-0.592667 0,-0.3280835 0.08996,-0.592667 0.09525,-0.2645835 0.259292,-0.449792 0.169333,-0.1905001 0.407458,-0.2910418 0.238125,-0.1005417 0.529167,-0.1005417 0.28575,0 0.518584,0.1005417 0.232833,0.09525 0.396875,0.2751668 0.164042,0.1799168 0.248709,0.4286253 0.08996,0.2487085 0.08996,0.5503337 v 0.2169584 h -1.957918 v 0.089958 q 0,0.3227919 0.201084,0.529167 0.201083,0.2010834 0.555625,0.2010834 0.264583,0 0.449792,-0.111125 0.1905,-0.1164168 0.306917,-0.3069169 l 0.359833,0.3175002 Q 28.181114,4.860397 27.895364,5.0244387 27.614905,5.1884805 27.191572,5.1884805 Z m -0.04233,-2.4182931 q -0.153458,0 -0.28575,0.052917 -0.127,0.052917 -0.22225,0.1534584 -0.08996,0.09525 -0.142875,0.2275418 -0.05292,0.1322917 -0.05292,0.2910418 v 0.037042 h 1.370543 v -0.052917 q 0,-0.3227918 -0.185209,-0.5132919 -0.179917,-0.1957918 -0.481542,-0.1957918 z m 1.968502,1.8891261 h 0.904876 V 1.6748117 H 29.11774 V 1.2091448 h 1.481668 v 3.4501687 h 0.904876 V 5.1249804 H 29.11774 Z m 4.423838,0.529167 q -0.312209,0 -0.560917,-0.1005417 Q 32.731952,4.987397 32.562619,4.8021886 32.393285,4.6169801 32.303327,4.3576883 q -0.08996,-0.2645835 -0.08996,-0.592667 0,-0.3280835 0.08996,-0.592667 0.09525,-0.2645835 0.259292,-0.449792 0.169333,-0.1905001 0.407458,-0.2910418 0.238125,-0.1005417 0.529167,-0.1005417 0.28575,0 0.518584,0.1005417 0.232833,0.09525 0.396875,0.2751668 0.164042,0.1799168 0.248709,0.4286253 0.08996,0.2487085 0.08996,0.5503337 v 0.2169584 h -1.957918 v 0.089958 q 0,0.3227919 0.201084,0.529167 0.201083,0.2010834 0.555625,0.2010834 0.264583,0 0.449792,-0.111125 0.1905,-0.1164168 0.306917,-0.3069169 l 0.359833,0.3175002 Q 34.53112,4.860397 34.24537,5.0244387 33.964911,5.1884805 33.541578,5.1884805 Z m -0.04233,-2.4182931 q -0.153458,0 -0.28575,0.052917 -0.127,0.052917 -0.22225,0.1534584 -0.08996,0.09525 -0.142875,0.2275418 -0.05292,0.1322917 -0.05292,0.2910418 v 0.037042 h 1.370543 v -0.052917 q 0,-0.3227918 -0.185209,-0.5132919 -0.179917,-0.1957918 -0.481542,-0.1957918 z m 3.164422,2.4182931 q -0.4445,0 -0.767292,-0.1428751 -0.3175,-0.1428751 -0.513292,-0.3810002 L 35.737624,4.347105 q 0.179916,0.1957918 0.402167,0.3016252 0.227541,0.1005417 0.534458,0.1005417 0.280459,0 0.449792,-0.09525 0.174625,-0.09525 0.174625,-0.2963335 0,-0.084667 -0.03175,-0.1428751 -0.03175,-0.058208 -0.08996,-0.09525 -0.05821,-0.037042 -0.137584,-0.058208 -0.07408,-0.021167 -0.15875,-0.03175 l -0.433917,-0.068792 q -0.15875,-0.021167 -0.322791,-0.068792 -0.164042,-0.047625 -0.296334,-0.1322918 -0.127,-0.089958 -0.211667,-0.2275418 -0.07937,-0.1375834 -0.07937,-0.3492502 0,-0.4180419 0.3175,-0.6350004 0.322792,-0.2169584 0.846668,-0.2169584 0.381,0 0.656167,0.1164167 0.280458,0.1111251 0.465667,0.3122085 L 37.49975,3.0982709 Q 37.393916,2.9765625 37.198125,2.8760208 37.002333,2.7701874 36.679541,2.7701874 q -0.576792,0 -0.576792,0.3651252 0,0.1746251 0.121708,0.2434168 0.127,0.0635 0.296334,0.084667 l 0.433917,0.068792 q 0.164041,0.026458 0.322792,0.068792 0.164041,0.042333 0.291041,0.1322918 0.132292,0.084667 0.211667,0.2222501 0.08467,0.1375834 0.08467,0.3492502 0,0.4127503 -0.322792,0.6508754 -0.3175,0.2328335 -0.878417,0.2328335 z"
         id="text1"
         aria-label=" Nick Veles" />
      <text
         xml:space="preserve"
         style="font-weight:bold;font-size:5.29167px;font-family:'IBM Plex Mono';-inkscape-font-specification:'IBM Plex Mono Bold';text-align:start;letter-spacing:0px;writing-mode:lr-tb;direction:ltr;text-anchor:start;display:none;fill:#000000;stroke-width:0.449792;stroke-linejoin:bevel;stroke-miterlimit:4.5;paint-order:markers stroke fill"
         x="5.3208332"
         y="5.1249804"
         id="text2"
         inkscape:label="text-edit"><tspan
           sodipodi:role="line"
           id="tspan2"
           style="font-style:normal;font-variant:normal;font-weight:500;font-stretch:normal;font-size:5.29167px;font-family:'IBM Plex Mono';-inkscape-font-specification:'IBM Plex Mono Medium';stroke-width:0.449792"
           x="5.3208332"
           y="5.1249804"
           dx="0.5 -1.5 0 0 0 -1"> Nick Veles</tspan></text>
    </g>
  </g>
</svg>
