<?xml version="1.0" encoding="UTF-8" standalone="no"?>
<svg
   width="24"
   height="24"
   viewBox="0 0 24 24"
   fill="none"
   stroke="currentColor"
   stroke-width="2"
   stroke-linecap="round"
   stroke-linejoin="round"
   class="icon icon-tabler icons-tabler-outline icon-tabler-trending-up-2"
   version="1.1"
   id="svg3"
   sodipodi:docname="opendyslexic-crossed.svg"
   xml:space="preserve"
   inkscape:version="1.4 (86a8ad7, 2024-10-11)"
   xmlns:inkscape="http://www.inkscape.org/namespaces/inkscape"
   xmlns:sodipodi="http://sodipodi.sourceforge.net/DTD/sodipodi-0.dtd"
   xmlns="http://www.w3.org/2000/svg"
   xmlns:svg="http://www.w3.org/2000/svg"><defs
     id="defs3"><inkscape:path-effect
       effect="fillet_chamfer"
       id="path-effect6"
       is_visible="true"
       lpeversion="1"
       nodesatellites_param="F,0,0,1,0,0.43669369,0,1 @ F,0,0,1,0,0.58400413,0,1 @ F,0,0,1,0,0,0,1 @ F,0,0,1,0,0,0,1 @ F,0,0,1,0,0,0,1 @ F,0,0,1,0,0,0,1 @ F,0,0,1,0,0,0,1 @ F,0,0,1,0,0,0,1 @ F,0,0,1,0,0,0,1 @ F,0,0,1,0,0.47647052,0,1 @ F,0,0,1,0,0.65031364,0,1 @ F,0,0,1,0,0,0,1 @ F,0,0,1,0,0,0,1 @ F,0,0,1,0,0,0,1 @ F,0,0,1,0,0,0,1 @ F,0,0,1,0,0,0,1 @ F,0,0,1,0,0,0,1 @ F,0,0,1,0,0,0,1"
       radius="0"
       unit="px"
       method="auto"
       mode="F"
       chamfer_steps="1"
       flexible="false"
       use_knot_distance="true"
       apply_no_radius="true"
       apply_with_radius="true"
       only_selected="false"
       hide_knots="false" /></defs><sodipodi:namedview
     id="namedview3"
     pagecolor="#505050"
     bordercolor="#eeeeee"
     borderopacity="1"
     inkscape:showpageshadow="0"
     inkscape:pageopacity="0"
     inkscape:pagecheckerboard="0"
     inkscape:deskcolor="#505050"
     inkscape:zoom="22.627418"
     inkscape:cx="12.418562"
     inkscape:cy="8.993514"
     inkscape:window-width="1920"
     inkscape:window-height="1009"
     inkscape:window-x="-8"
     inkscape:window-y="-8"
     inkscape:window-maximized="1"
     inkscape:current-layer="g1" /><g
     id="g1"
     transform="translate(1,1)"><path
       d="m 6.8126953,4.3126953 0.862242,0.862242 C 7.9030051,5.4030051 8.2772274,5.4061811 8.5353761,5.2130864 8.8178208,5.0018182 9.1202482,4.8200269 9.4433594,4.6679687 10.205685,4.2942938 11.05829,4.1074393 12,4.1074219 c 0.941692,1.74e-5 1.794298,0.1868719 2.556641,0.5605468 0.762321,0.3587612 1.41109,0.8827352 1.949218,1.5703125 0.538106,0.6726604 0.950356,1.5017483 1.234375,2.4882813 0.283991,0.9716116 0.425771,2.0626855 0.425782,3.2734375 -1.1e-5,1.001503 -0.141791,1.830591 -0.425782,2.488281 -0.01099,0.02487 -0.02216,0.04957 -0.03351,0.07408 -0.110536,0.238639 -0.07346,0.570906 0.112618,0.75698 l 1.38293,1.38293 c 0.253963,0.253963 0.591859,0.200016 0.733936,-0.129795 0.06305,-0.146361 0.123499,-0.295421 0.180983,-0.447473 C 20.58055,14.899296 20.812478,13.524672 20.8125,12 20.812478,10.475348 20.58055,9.1007225 20.117187,7.875 19.653795,6.6493049 19.024636,5.6033096 18.232422,4.7363281 17.440179,3.8544324 16.50591,3.1801938 15.429688,2.7167969 14.368392,2.2384903 13.2257,2.0000196 12,2 10.774282,2.0000196 9.623097,2.2384903 8.546875,2.7167969 7.9360489,2.9835042 7.368714,3.322028 6.8425712,3.7282616 6.6516852,3.8756441 6.6421558,4.1421558 6.8126953,4.3126953 Z"
       style="font-size:40px;font-family:OpenDyslexic3;display:inline;fill:#000000;stroke:none;stroke-width:2.23607"
       id="path6"
       inkscape:path-effect="#path-effect6"
       inkscape:original-d="M 6.5039062,4.0039062 8.0878906,5.5878906 C 8.4918023,5.2105141 8.9427563,4.9035558 9.4433594,4.6679687 10.205685,4.2942938 11.05829,4.1074393 12,4.1074219 c 0.941692,1.74e-5 1.794298,0.1868719 2.556641,0.5605468 0.762321,0.3587612 1.41109,0.8827352 1.949218,1.5703125 0.538106,0.6726604 0.950356,1.5017483 1.234375,2.4882813 0.283991,0.9716116 0.425771,2.0626855 0.425782,3.2734375 -1.1e-5,1.001503 -0.141791,1.830591 -0.425782,2.488281 -0.07682,0.173854 -0.162402,0.338879 -0.257812,0.494141 l 2.179687,2.179687 C 19.827267,16.83069 19.980599,16.48629 20.117187,16.125 20.58055,14.899296 20.812478,13.524672 20.8125,12 20.812478,10.475348 20.58055,9.1007225 20.117187,7.875 19.653795,6.6493049 19.024636,5.6033096 18.232422,4.7363281 17.440179,3.8544324 16.50591,3.1801938 15.429688,2.7167969 14.368392,2.2384903 13.2257,2.0000196 12,2 10.774282,2.0000196 9.623097,2.2384903 8.546875,2.7167969 7.8027219,3.0417192 7.1231181,3.473231 6.5039062,4.0039062 Z"
       transform="matrix(0.88888889,0,0,0.9,0.33333333,0.2)" /><path
       d="M 16.963541,17.038086 14.748264,14.795117 C 14.323887,15.044766 13.833508,15.22692 13.27257,15.338281 12.594932,15.472818 11.83706,15.540434 11,15.54043 10.162924,15.540434 9.4050533,15.472813 8.7274306,15.338281 8.0497968,15.203756 7.4731075,14.967969 6.9947916,14.63164 6.5164608,14.281871 6.1442021,13.817934 5.8784722,13.239453 5.6260157,12.647532 5.499995,11.901353 5.5,11 5.499995,9.9103232 5.6260158,8.9283567 5.8784722,8.0539063 6.0533606,7.4695542 6.2746889,6.9479301 6.5416667,6.4859375 L 5.03125,4.9566406 C 4.5166846,5.6311664 4.0941892,6.4075452 3.765625,7.2875 3.3670201,8.3906503 3.1666617,9.6278132 3.1666667,11 c -5e-6,1.372205 0.2003534,2.617008 0.5989583,3.733593 0.4118934,1.103143 0.9694058,2.044538 1.6736111,2.824805 0.7174838,0.78027 1.5479467,1.385329 2.4913195,1.81582 C 8.8871973,19.791259 9.9104729,20 11,20 c 1.089511,0 2.105237,-0.208741 3.048612,-0.625782 0.956641,-0.430491 1.787103,-1.03555 2.491319,-1.81582 0.147504,-0.166257 0.288931,-0.340478 0.42361,-0.520312 z"
       style="font-size:40px;font-family:OpenDyslexic3;display:inline;fill:#000000;stroke:none;stroke-width:2"
       id="path5" /><path
       d="M 1,1 21,21"
       id="path6-9" /></g></svg>
