<?xml version="1.0" encoding="UTF-8" standalone="no"?>
<svg
   width="24"
   height="24"
   viewBox="0 0 24 24"
   fill="none"
   stroke="currentColor"
   stroke-width="2"
   stroke-linecap="round"
   stroke-linejoin="round"
   class="icon icon-tabler icons-tabler-outline icon-tabler-trending-up-2"
   version="1.1"
   id="svg3"
   sodipodi:docname="opendyslexic.svg"
   xml:space="preserve"
   inkscape:version="1.4 (86a8ad7, 2024-10-11)"
   xmlns:inkscape="http://www.inkscape.org/namespaces/inkscape"
   xmlns:sodipodi="http://sodipodi.sourceforge.net/DTD/sodipodi-0.dtd"
   xmlns="http://www.w3.org/2000/svg"
   xmlns:svg="http://www.w3.org/2000/svg"><defs
     id="defs3" /><sodipodi:namedview
     id="namedview3"
     pagecolor="#505050"
     bordercolor="#eeeeee"
     borderopacity="1"
     inkscape:showpageshadow="0"
     inkscape:pageopacity="0"
     inkscape:pagecheckerboard="0"
     inkscape:deskcolor="#505050"
     inkscape:zoom="23.776466"
     inkscape:cx="12.743694"
     inkscape:cy="13.10119"
     inkscape:window-width="1920"
     inkscape:window-height="1009"
     inkscape:window-x="-8"
     inkscape:window-y="-8"
     inkscape:window-maximized="1"
     inkscape:current-layer="svg3" /><path
     stroke="none"
     d="M0 0h24v24H0z"
     fill="none"
     id="path1" /><path
     id="big_O"
     d="M 11.999996,4.896861 C 11.152457,4.8968766 10.38564,5.0650379 9.699547,5.4013454 9.0134428,5.7242304 8.4282413,6.1950817 7.9439465,6.8139014 7.4596365,7.4192957 7.0829532,8.165932 6.8139017,9.0538117 6.5582895,9.9282621 6.4304885,10.910323 6.4304936,12 c -5.1e-6,0.901353 0.1277959,1.647989 0.3834081,2.23991 0.2690515,0.578481 0.6457348,1.042607 1.1300448,1.392377 0.4842948,0.336328 1.0694963,0.571753 1.7556005,0.706278 0.686093,0.134533 1.45291,0.201798 2.300449,0.201794 0.847522,4e-6 1.614339,-0.06726 2.300447,-0.201794 0.686089,-0.134525 1.271291,-0.36995 1.755606,-0.706278 0.484295,-0.34977 0.854248,-0.813896 1.109866,-1.392377 C 17.421507,13.647989 17.549313,12.901353 17.549323,12 17.549313,10.910323 17.421507,9.9282621 17.165915,9.0538117 16.910297,8.165932 16.540344,7.4192957 16.056049,6.8139014 15.571734,6.1950817 14.986532,5.7242304 14.300443,5.4013454 13.614335,5.0650379 12.847518,4.8968766 11.999996,4.896861 Z m 0,-1.896861 c 1.10313,1.76e-5 2.132278,0.215264 3.087443,0.6457399 0.9686,0.4170572 1.809404,1.0224374 2.522422,1.8161435 0.712993,0.7802833 1.278015,1.7219866 1.695067,2.8251122 0.417027,1.1031502 0.625545,2.3408174 0.625565,3.7130044 -2e-5,1.372205 -0.208538,2.609871 -0.625565,3.713005 -0.417052,1.103143 -0.982074,2.051571 -1.695067,2.845291 -0.713018,0.780271 -1.553822,1.385651 -2.522422,1.816144 C 14.132274,20.79148 13.103126,21 11.999996,21 10.896849,21 9.8609764,20.79148 8.8923766,20.37444 7.9372116,19.943947 7.0964078,19.338567 6.3699554,18.558296 5.6569476,17.77803 5.0919252,16.836326 4.6748831,15.733184 4.2712956,14.616598 4.069502,13.372205 4.069507,12 4.069502,10.627813 4.2712956,9.3901458 4.6748831,8.2869956 5.0919252,7.18387 5.6569476,6.2421667 6.3699554,5.4618834 7.0964078,4.6681773 7.9372116,4.0627971 8.8923766,3.6457399 9.8609764,3.215264 10.896849,3.0000176 11.999996,3 Z"
     style="font-size:40px;font-family:OpenDyslexic3;fill:#000000;stroke:none;stroke-width:2" /></svg>
