<?xml version="1.0" encoding="UTF-8" standalone="no"?>
<!-- Created with Inkscape (http://www.inkscape.org/) -->

<svg
   width="24"
   height="24"
   viewBox="0 0 6.3499999 6.3499995"
   version="1.1"
   id="svg1"
   inkscape:version="1.4 (86a8ad7, 2024-10-11)"
   sodipodi:docname="datingsimplified.svg"
   xmlns:inkscape="http://www.inkscape.org/namespaces/inkscape"
   xmlns:sodipodi="http://sodipodi.sourceforge.net/DTD/sodipodi-0.dtd"
   xmlns="http://www.w3.org/2000/svg"
   xmlns:svg="http://www.w3.org/2000/svg">
  <sodipodi:namedview
     id="namedview1"
     pagecolor="#505050"
     bordercolor="#eeeeee"
     borderopacity="1"
     inkscape:showpageshadow="0"
     inkscape:pageopacity="0"
     inkscape:pagecheckerboard="0"
     inkscape:deskcolor="#505050"
     inkscape:document-units="px"
     showguides="true"
     inkscape:zoom="22.627416"
     inkscape:cx="13.037282"
     inkscape:cy="12.175496"
     inkscape:window-width="1920"
     inkscape:window-height="1009"
     inkscape:window-x="-8"
     inkscape:window-y="-8"
     inkscape:window-maximized="1"
     inkscape:current-layer="layer1" />
  <defs
     id="defs1" />
  <g
     inkscape:label="Layer 1"
     inkscape:groupmode="layer"
     id="layer1"
     transform="matrix(0.62499998,0,0,0.62499998,-42.333849,-68.367273)"
     style="fill:#000000;fill-opacity:1;stroke:none;stroke-width:1.6;stroke-opacity:1">
    <text
       xml:space="preserve"
       style="font-weight:600;font-size:6.47477px;font-family:Urbanist;-inkscape-font-specification:'Urbanist Semi-Bold';text-align:start;letter-spacing:0.294307px;writing-mode:lr-tb;direction:ltr;text-anchor:start;display:none;fill:#000000;fill-opacity:1;stroke:none;stroke-width:6.77333;stroke-linejoin:bevel;stroke-miterlimit:4.5;stroke-opacity:1;paint-order:markers stroke fill"
       x="73.421623"
       y="118.36531"
       id="text2"
       inkscape:label="text2-edit"><tspan
         sodipodi:role="line"
         id="tspan1"
         style="font-style:normal;font-variant:normal;font-weight:normal;font-stretch:normal;font-size:6.47477px;font-family:Urbanist;-inkscape-font-specification:Urbanist;fill:#000000;fill-opacity:1;stroke:none;stroke-width:6.77333;stroke-opacity:1"
         x="0"
         y="0">S</tspan></text>
    <path
       style="font-size:6.47477px;font-family:Urbanist;-inkscape-font-specification:Urbanist;letter-spacing:0.294307px;fill:#000000;fill-opacity:1;stroke:none;stroke-width:6.77333;stroke-linejoin:bevel;stroke-miterlimit:4.5;stroke-opacity:1;paint-order:markers stroke fill"
       d="m 75.393191,118.44948 q -0.362587,0 -0.702513,-0.11331 -0.336688,-0.1133 -0.589204,-0.32373 -0.252516,-0.21043 -0.356112,-0.5018 l 0.424097,-0.15863 q 0.07122,0.20072 0.258991,0.3464 0.191006,0.14244 0.443522,0.22014 0.255753,0.0777 0.521219,0.0777 0.310789,0 0.579492,-0.1036 0.268703,-0.10359 0.433809,-0.28812 0.165107,-0.18777 0.165107,-0.44029 0,-0.25575 -0.171582,-0.42086 -0.171581,-0.16511 -0.443521,-0.25899 -0.268703,-0.0971 -0.563305,-0.14892 -0.462946,-0.0809 -0.832008,-0.22014 -0.365825,-0.13921 -0.579492,-0.39173 -0.213668,-0.25575 -0.213668,-0.67337 0,-0.39173 0.226617,-0.67985 0.226617,-0.28813 0.595679,-0.44676 0.3723,-0.15863 0.802872,-0.15863 0.352875,0 0.689563,0.11007 0.336688,0.11007 0.592441,0.3205 0.258991,0.21043 0.372299,0.51474 l -0.430572,0.1554 q -0.07122,-0.20396 -0.262228,-0.3464 -0.187768,-0.14569 -0.440284,-0.22014 -0.252516,-0.0777 -0.521219,-0.0777 -0.307552,-0.003 -0.576255,0.10359 -0.265465,0.1036 -0.430572,0.29137 -0.165107,0.18453 -0.165107,0.43381 0,0.29136 0.152157,0.44999 0.155395,0.1554 0.42086,0.2331 0.265466,0.0777 0.598917,0.1392 0.433809,0.0745 0.806109,0.2331 0.372299,0.15539 0.598916,0.41762 0.226617,0.25899 0.226617,0.641 0,0.38849 -0.226617,0.67985 -0.226617,0.28813 -0.598916,0.44676 -0.369062,0.15863 -0.806109,0.15863 z"
       id="text4"
       aria-label="S" />
    <path
       id="text3"
       style="font-style:normal;font-variant:normal;font-weight:bold;font-stretch:normal;font-size:7.40833px;font-family:Parisienne;-inkscape-font-specification:'Parisienne Bold';text-align:start;letter-spacing:0.264583px;writing-mode:lr-tb;direction:ltr;text-anchor:start;fill:#000000;fill-opacity:1;stroke:none;stroke-width:6.77333;stroke-linejoin:bevel;stroke-miterlimit:4.5;stroke-opacity:1;paint-order:markers stroke fill"
       d="m 74.6446,110.4858 c -0.177044,0.14217 -0.342018,0.29507 -0.49492,0.45871 -0.225329,-0.10189 -0.468095,-0.17973 -0.728297,-0.23338 -0.257518,-0.0563 -0.532474,-0.0845 -0.824865,-0.0845 -0.402374,0 -0.781947,0.0429 -1.138719,0.12876 -0.354088,0.0832 -0.680011,0.19716 -0.977768,0.34202 -0.295074,0.14217 -0.56064,0.30714 -0.7967,0.49491 -0.236059,0.18778 -0.435905,0.38629 -0.599536,0.59552 -0.16095,0.20655 -0.285686,0.41578 -0.374209,0.62771 -0.08584,0.21191 -0.128759,0.41443 -0.128759,0.60758 0,0.16899 0.03219,0.32324 0.09657,0.46273 0.06438,0.13948 0.15022,0.26019 0.25752,0.36213 0.109977,0.0992 0.237401,0.17705 0.382254,0.23338 0.144855,0.0536 0.297757,0.0805 0.458707,0.0805 0.160949,0 0.319217,-0.0175 0.4748,-0.0523 0.155585,-0.0376 0.305805,-0.0859 0.45066,-0.14485 0.144854,-0.0617 0.284344,-0.13011 0.418468,-0.20521 0.136807,-0.0777 0.26825,-0.15827 0.394326,-0.24142 l -0.128759,-0.169 c -0.0027,0.002 -0.0228,0.0175 -0.06036,0.0443 -0.03487,0.0241 -0.08449,0.0563 -0.148879,0.0966 -0.06438,0.0376 -0.13949,0.0791 -0.225329,0.12474 -0.08584,0.0429 -0.178386,0.0832 -0.277638,0.12071 -0.09925,0.0376 -0.203869,0.0697 -0.313851,0.0966 -0.107297,0.0241 -0.215941,0.0363 -0.325924,0.0363 -0.142172,0 -0.273613,-0.0255 -0.394326,-0.0764 -0.120711,-0.051 -0.225329,-0.11938 -0.313851,-0.20522 -0.08852,-0.0885 -0.158267,-0.19046 -0.209234,-0.3058 -0.05097,-0.11535 -0.07645,-0.2374 -0.07645,-0.36616 0,-0.19851 0.04158,-0.397 0.124736,-0.59551 0.08584,-0.20119 0.20521,-0.39299 0.358112,-0.5754 0.155585,-0.18509 0.342018,-0.35677 0.5593,-0.51503 0.217281,-0.15827 0.457365,-0.29642 0.720248,-0.41445 0.262885,-0.11803 0.545888,-0.21058 0.849009,-0.27764 0.303122,-0.0671 0.618316,-0.10056 0.945579,-0.10056 0.268249,0 0.519062,0.0241 0.752439,0.0724 0.236059,0.0456 0.454683,0.11132 0.655869,0.19716 -0.236059,0.27361 -0.449317,0.566 -0.639775,0.87717 -0.187773,0.31118 -0.363477,0.62905 -0.527108,0.95364 -0.16095,0.32458 -0.313853,0.64781 -0.458707,0.96971 -0.142172,0.32191 -0.288368,0.63039 -0.438588,0.92546 -0.147537,0.29239 -0.303121,0.56333 -0.466753,0.81279 -0.160949,0.2468 -0.339335,0.45871 -0.535157,0.63575 -0.201187,-0.0536 -0.399691,-0.10055 -0.595514,-0.14082 -0.193138,-0.0429 -0.387619,-0.0644 -0.583441,-0.0644 -0.142172,0 -0.266908,0.0135 -0.374208,0.0403 -0.104616,0.0268 -0.191798,0.0631 -0.261543,0.10868 -0.06706,0.0456 -0.11803,0.0992 -0.152902,0.16095 -0.03219,0.059 -0.04829,0.12205 -0.04829,0.18911 0,0.0563 0.01341,0.11001 0.04023,0.16095 0.02951,0.0536 0.07242,0.10055 0.128759,0.14083 0.05902,0.0403 0.134125,0.0711 0.22533,0.0926 0.0912,0.0241 0.199846,0.0363 0.325922,0.0363 0.308488,0 0.584784,-0.0389 0.828891,-0.11669 0.246789,-0.0778 0.473459,-0.18643 0.680012,-0.32592 0.268248,0.0724 0.548569,0.13814 0.840961,0.19716 0.292391,0.0617 0.600878,0.0925 0.92546,0.0925 0.364819,0 0.693424,-0.0416 0.985815,-0.12474 0.292392,-0.0805 0.552593,-0.1918 0.780605,-0.33397 0.02721,-0.0172 0.05246,-0.036 0.07875,-0.0541 -0.08752,-0.0263 -0.173134,-0.0537 -0.254646,-0.0845 -0.07064,-0.0269 -0.137518,-0.0574 -0.201186,-0.0908 -0.121753,0.0809 -0.251913,0.15375 -0.391453,0.21728 -0.359453,0.16095 -0.77524,0.24142 -1.247358,0.24142 -0.228012,0 -0.449318,-0.0228 -0.663917,-0.0684 -0.214599,-0.0429 -0.429199,-0.0939 -0.643798,-0.1529 0.217282,-0.1824 0.413104,-0.397 0.587466,-0.64379 0.174362,-0.24948 0.335311,-0.51772 0.482848,-0.80475 0.15022,-0.28971 0.293734,-0.59283 0.430541,-0.90936 0.136807,-0.31654 0.276296,-0.63575 0.418468,-0.95765 0.142172,-0.3219 0.293733,-0.63978 0.454683,-0.95362 0.160949,-0.31386 0.339335,-0.61162 0.535156,-0.89328 0.20387,0.11267 0.384938,0.24813 0.543206,0.4064 0.158266,0.15827 0.29105,0.33397 0.398349,0.52711 0.109977,0.19314 0.19314,0.40237 0.249472,0.62771 0.05633,0.22532 0.08449,0.46272 0.08449,0.7122 0,0.0376 -7.89e-4,0.0749 -0.0018,0.11209 0.147863,0.009 0.29371,0.033 0.437438,0.0701 -0.007,-0.25182 -0.04117,-0.49658 -0.105762,-0.73346 -0.06974,-0.26826 -0.17302,-0.51907 -0.309827,-0.75244 -0.134125,-0.23338 -0.30044,-0.44664 -0.498943,-0.63977 -0.195823,-0.19583 -0.419811,-0.36348 -0.671965,-0.50297 0.115347,-0.15559 0.240083,-0.30446 0.374208,-0.44664 z m 0.811645,3.88463 c -0.02626,0.12125 -0.05752,0.24021 -0.09542,0.3564 -0.105884,0.33176 -0.258215,0.62602 -0.456981,0.88349 0.148228,0.0412 0.312645,0.0798 0.49377,0.11381 0.107953,-0.14889 0.20062,-0.30555 0.277064,-0.4702 0.107296,-0.22801 0.185092,-0.46675 0.233376,-0.71623 0.0056,-0.027 0.0095,-0.0541 0.01437,-0.0811 -0.01634,-0.006 -0.03192,-0.0117 -0.04887,-0.0167 h -0.0023 c -0.134392,-0.0415 -0.272691,-0.0641 -0.41502,-0.0695 z m -5.696462,1.91358 c 0.147536,0 0.30178,0.0161 0.462729,0.0483 0.16095,0.0295 0.329947,0.0671 0.506991,0.11267 -0.155585,0.11266 -0.324582,0.1985 -0.506991,0.25752 -0.179727,0.0617 -0.378231,0.0925 -0.595513,0.0925 -0.179727,0 -0.307145,-0.0228 -0.382255,-0.0684 -0.07242,-0.0456 -0.108643,-0.0992 -0.108643,-0.16095 0,-0.0777 0.05097,-0.14351 0.152903,-0.19716 0.104616,-0.0564 0.261542,-0.0845 0.470778,-0.0845 z" />
  </g>
</svg>
