<?xml version="1.0" encoding="UTF-8" standalone="no"?>
<svg
   height="72"
   viewBox="0 0 72 72"
   width="72"
   version="1.1"
   id="svg2"
   sodipodi:docname="linkedin.svg"
   inkscape:version="1.4 (86a8ad7, 2024-10-11)"
   xmlns:inkscape="http://www.inkscape.org/namespaces/inkscape"
   xmlns:sodipodi="http://sodipodi.sourceforge.net/DTD/sodipodi-0.dtd"
   xmlns="http://www.w3.org/2000/svg"
   xmlns:svg="http://www.w3.org/2000/svg">
  <defs
     id="defs2" />
  <sodipodi:namedview
     id="namedview2"
     pagecolor="#505050"
     bordercolor="#eeeeee"
     borderopacity="1"
     inkscape:showpageshadow="0"
     inkscape:pageopacity="0"
     inkscape:pagecheckerboard="0"
     inkscape:deskcolor="#505050"
     inkscape:zoom="5.6041667"
     inkscape:cx="28.907063"
     inkscape:cy="47.018587"
     inkscape:window-width="1920"
     inkscape:window-height="1009"
     inkscape:window-x="-8"
     inkscape:window-y="-8"
     inkscape:window-maximized="1"
     inkscape:current-layer="svg2" />
  <path
     d="M 8,0 C 3.581722,0 0,3.581722 0,8 v 56 c 0,4.418278 3.581722,8 8,8 h 56 c 4.418278,0 8,-3.581722 8,-8 V 8 C 72,3.581722 68.418278,0 64,0 Z m 8.349609,10 c 3.507292,0 6.347657,2.863834 6.347657,6.396484 0,3.53265 -2.840365,6.398438 -6.347657,6.398438 C 12.842318,22.794922 10,19.929134 10,16.396484 10,12.863834 12.842318,10 16.349609,10 Z M 49.382812,26.273437 C 56.735937,26.273437 62,30.76404 62,40.050781 V 62 H 51.316406 V 43.802734 c 0,-4.98936 -1.896614,-7.777343 -5.845703,-7.777343 -4.296094,0 -6.541016,2.901339 -6.541016,7.777343 V 62 H 28.632812 V 27.333984 h 10.296875 v 4.667969 c 0,0 3.096615,-5.728516 10.453125,-5.728516 z M 11.033203,27.333984 H 21.769531 V 62 H 11.033203 Z"
     style="fill:#000000;fill-opacity:1"
     id="path3" />
</svg>
